<?xml version="1.0" encoding="UTF-8" standalone="no"?>
<!-- Created with Inkscape (http://www.inkscape.org/) -->

<svg
   version="1.1"
   id="svg1"
   width="500"
   height="91"
   viewBox="0 0 500 91"
   sodipodi:docname="cloud-produce-header-black.png"
   xmlns:inkscape="http://www.inkscape.org/namespaces/inkscape"
   xmlns:sodipodi="http://sodipodi.sourceforge.net/DTD/sodipodi-0.dtd"
   xmlns="http://www.w3.org/2000/svg"
   xmlns:svg="http://www.w3.org/2000/svg">
  <defs
     id="defs1" />
  <sodipodi:namedview
     id="namedview1"
     pagecolor="#ffffff"
     bordercolor="#000000"
     borderopacity="0.25"
     inkscape:showpageshadow="2"
     inkscape:pageopacity="0.0"
     inkscape:pagecheckerboard="0"
     inkscape:deskcolor="#d1d1d1"
     showgrid="false">
    <inkscape:page
       x="0"
       y="0"
       width="500"
       height="91"
       id="page2"
       margin="0"
       bleed="0" />
  </sodipodi:namedview>
  <g
     inkscape:groupmode="layer"
     inkscape:label="Image"
     id="g1">
    <path
       style="fill:#0f0f0f;stroke:none"
       d="m 40,16 v 1 L 49,26 58.666668,16 55,11 50,7.3333359 40,16 m 23,4 c -2.413364,2.413368 -7.367687,5.738937 -8.5,9 -1.007607,2.901909 4.598083,8.50761 7.5,7.5 3.261063,-1.132313 6.586624,-6.086628 9,-8.5 v -1 l -8,-7 m -34,7 c 1.421911,2.572979 5.031719,8.424534 8,9.5 2.649273,0.959881 7.666668,-3.952175 7.666668,-6.5 0,-2.766743 -6.802193,-9.494606 -9.666668,-8.5 -2.235214,0.776115 -4.366722,3.866722 -6,5.5 m 118,2 v 42 h 7 V 42 l -1,-14 -6,1 m 109,-1 -5,1 v 17 c -3.16672,-1.583363 -5.34523,-2.949238 -9,-3 -20.83867,-0.289429 -17.73013,33.152115 3,28.833336 2.56416,-0.534203 4.12904,-2.110085 6,-3.833336 1.04601,3.233109 2.75984,3 6,3 V 40 l -1,-12 m 125,1 v 19 c -1.91663,-1.765297 -3.4288,-3.190536 -6,-3.833332 C 353.49695,38.790909 351.16406,74.426216 373,72 c 3.73386,-0.414871 6.01773,-3.172165 9,-5 v 4 h 3 V 29 h -4 M 141,58 c -2.18805,0 -5.73788,-0.697174 -7.66667,0.5 C 127.31149,62.23769 123.0915,68.948616 115,63.666664 104.42358,56.762619 107.27205,37.762665 121,37 c 6.50204,-0.361225 7.91075,4.605225 12.33333,7.5 C 135.20003,45.72184 138.85745,45 141,45 138.38545,30.806828 118.97418,26.224991 108,34.666668 102.02529,39.262596 100.30832,47.885571 101,55 c 2.03177,20.898201 36.14117,23.947784 40,3 m 130,13 h 4 c 0,-3.483047 -1.45102,-11.21566 1.16666,-13.833332 C 278.02512,55.308212 281.60898,56 284,56 c 6.90707,0 13.46393,-0.783478 14.83334,-9 0.30945,-1.856739 0.37546,-4.120781 0.16666,-6 -1.09604,-9.864403 -11.30038,-10 -19,-10 -2.24716,0 -6.99136,-0.928673 -8.5,1.166668 C 269.88574,34.408703 271,40.32518 271,43 V 71 M 24,32 20,40 31,52 35,42 24,32 M 74,32 65.333336,42 68,52 c 7.864548,-4.553162 16.465942,-13.42141 6,-20 m -25,2 c -1.633286,1.633286 -4.723885,3.764782 -5.5,6 -1.007607,2.901913 4.598087,8.50761 7.5,7.5 2.235222,-0.776119 4.366718,-3.866718 6,-5.5 V 41 L 49,34 M 275,53 V 35 c 4.47534,0 10.75055,-1.14217 15,0.333332 6.86407,2.383362 7.8389,12.297623 2,16.333336 C 287.84586,54.537918 279.84534,53 275,53 M 170,43.333332 C 159.62126,46.504612 156.41011,60.41011 164,68 c 4.03047,4.030472 10.56259,5.026016 16,3.666664 C 189.84581,69.205215 193.42682,55.94899 187.66667,48 184.14365,43.138222 175.57874,41.628719 170,43.333332 m 166,0 C 325.17645,44.53595 318.2775,57.827385 325.33334,67 328.65475,71.317833 334.8667,72.570366 340,72 357.46594,70.059341 353.71133,41.365402 336,43.333332 M 449,63 c -5.69824,0.651226 -7.95642,8.112358 -15,5.666664 -10.23294,-3.553108 -9.23419,-19.632645 1,-22.333332 5.9762,-1.577053 9.37643,4.792255 14,6.666668 -0.17511,-6.654137 -6.59689,-10.378124 -13,-9.666668 -6.96664,0.774075 -12.31113,5.580906 -13,12.666668 -0.61179,6.292831 2.7153,13.57177 9,15.666664 7.08127,2.36042 16.37216,-0.714088 17,-8.666664 m 32,1 c -3.92548,0.413208 -5.44641,3.432777 -9,4.666664 C 465.12497,71.053833 459.17422,65.621338 459,59 h 22 c 0,-4.277714 0.22202,-8.674038 -3,-12 -8.08368,-8.344448 -21.96341,-1.662071 -23,9 -0.4519,4.648331 1.1687,10.719513 5,13.666664 6.58429,5.064842 18.80737,2.665398 21,-5.666664 M 196,44 c 0,10.827187 -3.17212,31.410858 14,27.833336 2.17459,-0.453041 4.04018,-1.853424 6,-2.833336 l 6,2 V 44 h -7 c 0,5.177738 1.534,13.3311 -0.83333,18 -1.9404,3.826889 -6.72313,5.605301 -9.83334,1.833336 C 200.97882,59.765106 203,49.044415 203,44 h -7 m 110,0 v 27 h 3 c 0,-9.096989 -2.9538,-24 10,-24 v -3 l -10,3 -1,-3 h -2 m 88,0 c 0,10.438293 -3.82813,31.339203 13,27.833336 2.17462,-0.453049 4.04016,-1.853417 6,-2.833336 l 3,2 V 44 h -3 c 0,6.018745 1.47345,14.510555 -1.5,20 -2.60117,4.802147 -9.44031,7.298157 -13,2 C 394.96161,60.733543 397,50.083355 397,44 h -3 M 38,46 c -2.659416,9.18708 0.638771,17.159286 9,22 0,-8.734894 1.551022,-18.945751 -9,-22 M 53,67 C 61.729778,61.945915 63.721554,55.345558 62,46 51.788246,48.956039 53,58.479851 53,67 M 478,56 h -19 c 0.19299,-7.334045 9.15253,-13.336372 15.66666,-7.666668 C 476.82596,50.21273 477.51108,53.345764 478,56 M 81,47 62,66 53.5,75 53,85 c 13.644325,-3.949677 23.405449,-9.617065 28,-24 1.200523,-3.758156 2.239998,-10.920006 0,-14 m 252,0.166668 c 14.20258,-4.33968 21.68948,16.7467 8,21.499996 -13.5358,4.699928 -21.26703,-17.446178 -8,-21.499996 m 34,0 c 14.1922,-4.336506 19.96045,17.53986 7,21.499996 -13.19449,4.031654 -18.67825,-17.931641 -7,-21.499996 M 17,48 c 0,19.486671 10.532822,33.41394 30,37 L 46.5,76 29,58 17,48 m 156,1.166668 c 10.32552,-2.151146 14.55534,13.182167 5,16.499996 -11.04016,3.833389 -15.68964,-14.272991 -5,-16.499996 m 67,0 c 10.81894,-3.30579 14.27826,13.831646 5,16.666668 -10.40475,3.179222 -14.77745,-13.679115 -5,-16.666668 z"
       id="path1" />
  </g>
</svg>
