<?xml version="1.0" encoding="UTF-8" standalone="no"?>
<!-- Created with Inkscape (http://www.inkscape.org/) -->

<svg
   width="210mm"
   height="297mm"
   viewBox="0 0 210 297"
   version="1.1"
   id="svg1"
   xml:space="preserve"
   inkscape:export-filename="logo-bitmap.svg"
   inkscape:export-xdpi="96"
   inkscape:export-ydpi="96"
   xmlns:inkscape="http://www.inkscape.org/namespaces/inkscape"
   xmlns:sodipodi="http://sodipodi.sourceforge.net/DTD/sodipodi-0.dtd"
   xmlns="http://www.w3.org/2000/svg"
   xmlns:svg="http://www.w3.org/2000/svg"><sodipodi:namedview
     id="namedview1"
     pagecolor="#ffffff"
     bordercolor="#000000"
     borderopacity="0.25"
     inkscape:showpageshadow="2"
     inkscape:pageopacity="0.0"
     inkscape:pagecheckerboard="0"
     inkscape:deskcolor="#d1d1d1"
     inkscape:document-units="mm"><inkscape:page
       x="0"
       y="0"
       width="210"
       height="297"
       id="page2"
       margin="0"
       bleed="0" /></sodipodi:namedview><defs
     id="defs1" /><path
     style="fill:#0c0c0c;stroke:none"
     d="m 104.03018,145.28143 v 0.26458 l 2.38126,2.38125 2.55764,-2.64583 -0.97014,-1.32292 -1.32292,-0.97013 -2.64584,2.29305 m 6.08542,1.05833 c -0.63853,0.63854 -1.94936,1.51843 -2.24896,2.38125 -0.26659,0.7678 1.21658,2.25098 1.98438,1.98438 0.86282,-0.29959 1.74271,-1.61042 2.38125,-2.24896 v -0.26458 l -2.11667,-1.85209 m -8.99583,1.85209 c 0.28995,0.50083 0.6341,0.86675 1.01423,1.32291 0.2501,0.30012 0.4901,0.8165 0.83785,1.01424 0.80652,0.45861 2.29306,-0.59014 2.29306,-1.5434 0,-0.60324 -0.83742,-1.21227 -1.23473,-1.5875 -0.36172,-0.34163 -0.75743,-0.85781 -1.32291,-0.66146 -0.59141,0.20535 -1.15536,1.02307 -1.5875,1.45521 m -1.322923,1.32291 -1.05833,2.11667 2.910413,3.175 0.74966,-2.91042 -2.601743,-2.38125 m 13.229173,0 -2.29306,2.64584 0.70556,2.64583 c 2.08083,-1.20469 4.35661,-3.55108 1.5875,-5.29167 m -6.61458,0.52917 c -0.43214,0.43214 -1.24987,0.9961 -1.45521,1.5875 -0.2666,0.7678 1.21658,2.25097 1.98437,1.98437 0.5914,-0.20534 1.15537,-1.02307 1.5875,-1.4552 v -0.26459 l -2.11666,-1.85208 m -2.91042,3.175 c -0.70364,2.43075 0.16901,4.54006 2.38125,5.82083 0,-2.3111 0.41037,-5.01273 -2.38125,-5.82083 m 3.96875,5.55625 c 2.30975,-1.33723 2.83674,-3.08357 2.38125,-5.55625 -2.70186,0.78212 -2.38125,3.30196 -2.38125,5.55625 m 7.40833,-5.29167 -5.02708,5.02709 -2.24896,2.38125 -0.13229,2.64583 c 3.61006,-1.04502 6.19269,-2.54452 7.40833,-6.35 0.31764,-0.99435 0.59267,-2.88925 0,-3.70417 m -16.933333,0.26459 c 0,3.53071 1.19452,6.94369 4.497913,8.68715 1.10005,0.58058 2.26215,0.76159 3.43959,1.10243 l -0.13229,-2.38125 -4.63021,-4.7625 z"
     id="path1" /></svg>
